
        <svg xmlns="http://www.w3.org/2000/svg" xmlns:xlink="http://www.w3.org/1999/xlink" version="1.1" width="3162.347188264059" 
        height="716.3051332520091" viewBox="0 0 3162.347188264059 716.3051332520091">
			<rect fill="#ffffff" width="3162.347188264059" height="716.3051332520091"/>
			<g transform="scale(8.117359413202934) translate(10, 10)">
				<defs id="SvgjsDefs1001"><linearGradient id="SvgjsLinearGradient1013"><stop id="SvgjsStop1014" stop-color="#147d6c" offset="0"></stop><stop id="SvgjsStop1015" stop-color="#1effff" offset="1"></stop></linearGradient><linearGradient id="SvgjsLinearGradient1016"><stop id="SvgjsStop1017" stop-color="#147d6c" offset="0"></stop><stop id="SvgjsStop1018" stop-color="#1effff" offset="1"></stop></linearGradient></defs><g id="SvgjsG1007" featureKey="9id2mP-0" transform="matrix(1.9343428760915224,0,0,1.9343428760915224,-34.33458605062452,-52.923618581027014)" fill="url(#SvgjsLinearGradient1013)"><title xmlns="http://www.w3.org/2000/svg">Bricks</title><path xmlns="http://www.w3.org/2000/svg" data-name="Compound Path" d="M31.72,29.46V41.33H19.85V29.46H31.72m2.1-2.1H17.75V43.42H33.82V27.36Z"></path><path xmlns="http://www.w3.org/2000/svg" data-name="Compound Path" d="M50.93,29.46V41.33H39.07V29.46H50.93m2.1-2.1H37V43.42H53V27.36Z"></path><path xmlns="http://www.w3.org/2000/svg" data-name="Compound Path" d="M70.15,29.46V41.33H58.28V29.46H70.15m2.1-2.1H56.18V43.42H72.25V27.36Z"></path><path xmlns="http://www.w3.org/2000/svg" data-name="Compound Path" d="M50.93,48.67V60.54H39.07V48.67H50.93m2.1-2.1H37V62.64H53V46.58Z"></path></g><g id="SvgjsG1008" featureKey="zfl5BF-0" transform="matrix(2.0594335177317133,0,0,2.0594335177317133,123.64077321052726,-2.015620185589622)" fill="#40514e"><path d="M8.88 7.2 l0 2 l-3.12 0 l0 10.8 l-2 0 l0 -10.8 l-3.1 0 l0 -2 l8.22 0 z M16.98 18.14 c0.5 0.56 0.68 1.28 0.68 1.86 l-2 0 c0 -0.2 -0.08 -0.48 -0.24 -0.56 c-0.18 -0.12 -0.62 -0.12 -1.32 0.24 c-0.7 0.34 -1.4 0.5 -2.06 0.5 c-0.36 0 -0.7 -0.04 -1.02 -0.14 c-0.86 -0.26 -1.58 -0.84 -2 -1.66 c-0.42 -0.78 -0.54 -1.68 -0.32 -2.54 c0.24 -0.92 0.84 -1.72 1.72 -2.22 c0.6 -0.36 1.36 -0.52 2.18 -0.46 c0.76 0.06 1.52 0.28 2.2 0.68 c0.06 0.02 0.12 0.06 0.18 0.1 l0 -0.18 c0 -1.02 -0.44 -1.34 -0.58 -1.44 c-0.94 -0.72 -3.02 -0.46 -4.52 -0.04 l-0.56 -1.92 c0.52 -0.14 1.54 -0.4 2.68 -0.46 c1.54 -0.1 2.74 0.18 3.6 0.82 c0.44 0.34 0.78 0.76 1.02 1.26 c0.24 0.52 0.36 1.12 0.36 1.78 l0 4.38 z M13.22 17.88 c0.68 -0.34 1.26 -0.48 1.76 -0.5 c-0.04 -1 -0.76 -1.56 -1.18 -1.82 c-0.48 -0.26 -1.02 -0.4 -1.52 -0.4 c-0.32 0 -0.62 0.06 -0.86 0.2 c-0.88 0.5 -1 1.44 -0.64 2.08 c0.42 0.8 1.34 0.98 2.44 0.44 z M27.66 20 l-2.42 0 l-3.68 -5.02 c-0.2 0.18 -0.42 0.42 -0.48 0.96 l0 4.06 l-2 0 l0 -13.48 l2 0 l0 6.4 c0.48 -0.24 1 -0.44 1.5 -0.62 c1.3 -0.48 2.4 -0.88 2.88 -2.2 l2.06 0 c-0.22 1.02 -0.66 1.86 -1.36 2.52 c-0.82 0.78 -1.82 1.16 -2.74 1.5 l4.28 5.86 z M29.26 19.98 l0 -9.88 l2 0 l0 9.88 l-2 0 z M30.28 8.62 c-0.64 0 -1.16 -0.52 -1.16 -1.16 s0.52 -1.14 1.16 -1.14 s1.14 0.5 1.14 1.14 s-0.5 1.16 -1.14 1.16 z M40.9 13.6 l0 2.06 l-5.88 1.32 c0.08 0.36 0.24 0.64 0.46 0.8 c0.34 0.28 1.14 0.5 2.92 0.02 c0.36 -0.1 1.24 -0.36 1.52 -0.46 l0.62 1.9 c-0.24 0.08 -1.2 0.38 -1.62 0.5 c-0.86 0.22 -1.62 0.34 -2.3 0.34 c-0.96 0 -1.74 -0.24 -2.36 -0.7 c-0.84 -0.64 -1.28 -1.66 -1.3 -3 l-0.02 0 l0 -2.78 c0 -1.96 0.92 -2.9 1.68 -3.34 c0.9 -0.52 1.92 -0.52 2.3 -0.52 c0.4 0 1.4 0 2.32 0.52 c0.76 0.44 1.66 1.38 1.66 3.34 z M38.9 14.06 l0 -0.46 c0 -1.56 -0.76 -1.86 -1.98 -1.86 s-1.98 0.3 -1.98 1.86 l0 0.54 l0 0.8 z M49.54 10.1 l2 0 c0.12 1.28 -0.04 2.58 -0.48 3.9 c-0.48 1.5 -1.22 2.78 -1.86 3.92 c-0.48 0.84 -0.86 1.52 -1.06 2.08 l-2.32 0 c-0.2 -0.56 -0.58 -1.24 -1.08 -2.08 c-0.64 -1.14 -1.38 -2.42 -1.86 -3.92 c-0.42 -1.32 -0.58 -2.62 -0.48 -3.9 l2.02 0 c-0.28 2.7 0.96 4.88 2.06 6.82 c0.18 0.3 0.34 0.58 0.5 0.88 c0.14 -0.3 0.32 -0.58 0.48 -0.88 c1.12 -1.94 2.36 -4.12 2.08 -6.82 z M66.56 9.2 l-4.96 0 l0 3.14 l4.6 0 l0 2 l-4.6 0 l0 5.66 l-2 0 l0 -12.8 l6.96 0 l0 2 z M68.12 19.98 l0 -9.88 l2 0 l0 9.88 l-2 0 z M69.14 8.62 c-0.64 0 -1.16 -0.52 -1.16 -1.16 s0.52 -1.14 1.16 -1.14 s1.14 0.5 1.14 1.14 s-0.5 1.16 -1.14 1.16 z M80.02 12.06 c0.2 0.5 0.3 1.1 0.3 1.76 l0 6.18 l-2 0 l0 -6.18 c0 -0.72 -0.16 -1.24 -0.5 -1.54 c-0.52 -0.46 -1.34 -0.4 -1.5 -0.4 c-0.56 0.06 -1.18 0.38 -1.66 0.88 s-0.74 1.1 -0.74 1.64 l0 0 l0 1.04 l0 4.56 l-2 0 l0 -4.56 l0 -5.34 l2 0 l0 0.68 c0.68 -0.5 1.44 -0.82 2.2 -0.88 c0.56 -0.06 1.96 -0.08 3.04 0.9 c0.38 0.34 0.66 0.76 0.86 1.26 z M90.28 18.14 c0.5 0.56 0.68 1.28 0.68 1.86 l-2 0 c0 -0.2 -0.08 -0.48 -0.24 -0.56 c-0.18 -0.12 -0.62 -0.12 -1.32 0.24 c-0.7 0.34 -1.4 0.5 -2.06 0.5 c-0.36 0 -0.7 -0.04 -1.02 -0.14 c-0.86 -0.26 -1.58 -0.84 -2 -1.66 c-0.42 -0.78 -0.54 -1.68 -0.32 -2.54 c0.24 -0.92 0.84 -1.72 1.72 -2.22 c0.6 -0.36 1.36 -0.52 2.18 -0.46 c0.76 0.06 1.52 0.28 2.2 0.68 c0.06 0.02 0.12 0.06 0.18 0.1 l0 -0.18 c0 -1.02 -0.44 -1.34 -0.58 -1.44 c-0.94 -0.72 -3.02 -0.46 -4.52 -0.04 l-0.56 -1.92 c0.52 -0.14 1.54 -0.4 2.68 -0.46 c1.54 -0.1 2.74 0.18 3.6 0.82 c0.44 0.34 0.78 0.76 1.02 1.26 c0.24 0.52 0.36 1.12 0.36 1.78 l0 4.38 z M86.52 17.88 c0.68 -0.34 1.26 -0.48 1.76 -0.5 c-0.04 -1 -0.76 -1.56 -1.18 -1.82 c-0.48 -0.26 -1.02 -0.4 -1.52 -0.4 c-0.32 0 -0.62 0.06 -0.86 0.2 c-0.88 0.5 -1 1.44 -0.64 2.08 c0.42 0.8 1.34 0.98 2.44 0.44 z M100.48 12.06 c0.2 0.5 0.3 1.1 0.3 1.76 l0 6.18 l-2 0 l0 -6.18 c0 -0.72 -0.16 -1.24 -0.5 -1.54 c-0.52 -0.46 -1.34 -0.4 -1.5 -0.4 c-0.56 0.06 -1.18 0.38 -1.66 0.88 s-0.74 1.1 -0.74 1.64 l0 0 l0 1.04 l0 4.56 l-2 0 l0 -4.56 l0 -5.34 l2 0 l0 0.68 c0.68 -0.5 1.44 -0.82 2.2 -0.88 c0.56 -0.06 1.96 -0.08 3.04 0.9 c0.38 0.34 0.66 0.76 0.86 1.26 z M108.96 17.46 c0.16 -0.06 0.28 -0.1 0.4 -0.14 l0.56 1.94 c-0.1 0.02 -0.22 0.06 -0.36 0.1 c-0.78 0.26 -2.1 0.66 -3.4 0.66 c-0.82 0 -1.64 -0.16 -2.32 -0.66 c-0.44 -0.32 -0.78 -0.76 -1.02 -1.3 c-0.22 -0.52 -0.34 -1.16 -0.34 -1.88 l0 -2.6 c0 -0.72 0.12 -1.36 0.34 -1.88 c0.24 -0.54 0.58 -0.98 1.02 -1.3 c1.74 -1.28 4.44 -0.42 5.72 0 c0.14 0.04 0.26 0.08 0.36 0.1 l-0.56 1.92 c-0.12 -0.02 -0.24 -0.06 -0.4 -0.12 c-0.9 -0.28 -3.02 -0.96 -3.94 -0.3 c-0.36 0.26 -0.54 0.8 -0.54 1.58 l0 2.6 c0 0.78 0.18 1.32 0.54 1.58 c0.92 0.66 3.04 -0.02 3.94 -0.3 z M119.42 13.6 l0 2.06 l-5.88 1.32 c0.08 0.36 0.24 0.64 0.46 0.8 c0.34 0.28 1.14 0.5 2.92 0.02 c0.36 -0.1 1.24 -0.36 1.52 -0.46 l0.62 1.9 c-0.24 0.08 -1.2 0.38 -1.62 0.5 c-0.86 0.22 -1.62 0.34 -2.3 0.34 c-0.96 0 -1.74 -0.24 -2.36 -0.7 c-0.84 -0.64 -1.28 -1.66 -1.3 -3 l-0.02 0 l0 -2.78 c0 -1.96 0.92 -2.9 1.68 -3.34 c0.9 -0.52 1.92 -0.52 2.3 -0.52 c0.4 0 1.4 0 2.32 0.52 c0.76 0.44 1.66 1.38 1.66 3.34 z M117.42 14.06 l0 -0.46 c0 -1.56 -0.76 -1.86 -1.98 -1.86 s-1.98 0.3 -1.98 1.86 l0 0.54 l0 0.8 z"></path></g><g id="SvgjsG1009" featureKey="pYXC9J-0" transform="matrix(0.4495778470170922,0,0,0.4495778470170922,159.9910085588224,47.53631360414674)" fill="url(#SvgjsLinearGradient1016)"><path d="M8 5.84 l6.06 14.16 l-2.24 0 l-1.42 -3.5 l-6.74 0 l-1.4 3.5 l-2.24 0 l6.24 -14.16 l1.74 0 z M4.34 14.82 l5.36 0 l-2.64 -6.5 l-0.04 0 z M26.024 5.48 c1 0 1.93666 0.186641 2.81 0.55998 s1.59 0.92 2.15 1.64 l-1.6 1.22 c-0.86666 -1.08 -2.00666 -1.62 -3.42 -1.62 c-1.53334 0 -2.79668 0.54666 -3.79002 1.64 s-1.49 2.46668 -1.49 4.12002 c0 1.6 0.49 2.92 1.47 3.96 s2.25 1.56 3.81 1.56 s2.79334 -0.63334 3.7 -1.9 l1.62 1.22 c-0.56 0.74666 -1.30666 1.34666 -2.24 1.8 s-1.97334 0.68 -3.12 0.68 c-1.36 0 -2.59334 -0.33 -3.7 -0.99 s-1.98 -1.56666 -2.62 -2.72 s-0.96 -2.36334 -0.96 -3.63 c0 -2.18666 0.68666 -3.99 2.06 -5.41 s3.14668 -2.13 5.32002 -2.13 z M43.728 5.48 c1 0 1.93666 0.186641 2.81 0.55998 s1.59 0.92 2.15 1.64 l-1.6 1.22 c-0.86666 -1.08 -2.00666 -1.62 -3.42 -1.62 c-1.53334 0 -2.79668 0.54666 -3.79002 1.64 s-1.49 2.46668 -1.49 4.12002 c0 1.6 0.49 2.92 1.47 3.96 s2.25 1.56 3.81 1.56 s2.79334 -0.63334 3.7 -1.9 l1.62 1.22 c-0.56 0.74666 -1.30666 1.34666 -2.24 1.8 s-1.97334 0.68 -3.12 0.68 c-1.36 0 -2.59334 -0.33 -3.7 -0.99 s-1.98 -1.56666 -2.62 -2.72 s-0.96 -2.36334 -0.96 -3.63 c0 -2.18666 0.68666 -3.99 2.06 -5.41 s3.14668 -2.13 5.32002 -2.13 z M61.432 5.48 c2.10666 0 3.86336 0.69998 5.27002 2.09998 s2.11 3.18 2.11 5.34 c0 1.37334 -0.31334 2.63 -0.94 3.77 s-1.51 2.03666 -2.65 2.69 s-2.40334 0.98 -3.79 0.98 c-1.37334 0 -2.62668 -0.32334 -3.76002 -0.97 s-2.02 -1.54 -2.66 -2.68 s-0.96 -2.40334 -0.96 -3.79 c0 -2.10666 0.69 -3.87332 2.07 -5.29998 s3.15 -2.14 5.31 -2.14 z M56.09204 12.91998 c0 1.6 0.49998 2.94002 1.49998 4.02002 s2.28 1.62 3.84 1.62 c1.53334 0 2.80668 -0.53334 3.82002 -1.6 s1.52 -2.41332 1.52 -4.03998 c0 -1.61334 -0.5 -2.95668 -1.5 -4.03002 s-2.28666 -1.61 -3.86 -1.61 c-1.52 0 -2.78666 0.53334 -3.8 1.6 s-1.52 2.41332 -1.52 4.03998 z M76.856 5.84 l0 8.74 c0 1.16 0.32334 2.11334 0.97 2.86 s1.51 1.12 2.59 1.12 s1.94334 -0.37334 2.59 -1.12 s0.97 -1.7 0.97 -2.86 l0 -8.74 l1.92 0 l0 9.06 c0 0.97334 -0.23 1.88334 -0.69 2.73 s-1.11334 1.51332 -1.96 1.99998 s-1.79 0.73 -2.83 0.73 c-1.6 0 -2.91334 -0.52334 -3.94 -1.57 s-1.54 -2.34332 -1.54 -3.88998 l0 -9.06 l1.92 0 z M95.42 5.84 l7.8 11.64 l0.04 0 l0 -11.64 l1.92 0 l0 14.16 l-2.44 0 l-7.88 -11.64 l-0.04 0 l0 11.64 l-1.92 0 l0 -14.16 l2.52 0 z M121.884 5.84 l0 1.8 l-4.56 0 l0 12.36 l-1.92 0 l0 -12.36 l-4.56 0 l0 -1.8 l11.04 0 z M129.468 5.84 l0 14.16 l-1.92 0 l0 -14.16 l1.92 0 z M139.252 5.84 l7.8 11.64 l0.04 0 l0 -11.64 l1.92 0 l0 14.16 l-2.44 0 l-7.88 -11.64 l-0.04 0 l0 11.64 l-1.92 0 l0 -14.16 l2.52 0 z M162.796 5.48 c2.36 0 4.11334 0.6133 5.26 1.83996 l-1.36 1.46 c-1.05334 -1 -2.36 -1.5 -3.92 -1.5 s-2.84 0.53666 -3.84 1.61 s-1.5 2.41668 -1.5 4.03002 c0 1.62666 0.53 2.97332 1.59 4.03998 s2.36334 1.6 3.91 1.6 c1.46666 0 2.62666 -0.24666 3.48 -0.74 l0 -3.94 l-3.14 0 l0 -1.8 l5.06 0 l0 6.98 c-0.69334 0.41334 -1.53 0.73334 -2.51 0.96 s-1.93 0.34 -2.85 0.34 c-2.22666 0 -4.04666 -0.69334 -5.46 -2.08 s-2.12 -3.17332 -2.12 -5.35998 c0 -2.10666 0.69666 -3.87332 2.09 -5.29998 s3.16334 -2.14 5.31 -2.14 z M189.104 5.6 c1.08 0 1.953398 0.27998 2.62006 0.83998 s1.01332 1.34666 1.03998 2.36 c0 1.41334 -0.98 2.62668 -2.94 3.64002 l2.8 2.92 l1.78 -2.9 l2.18 0 l-2.74 4.24 l3.22 3.3 l-2.58 0 l-1.74 -1.88 c-0.64 0.77334 -1.29666 1.34 -1.97 1.7 s-1.46334 0.54 -2.37 0.54 c-1.37334 0 -2.48668 -0.37666 -3.34002 -1.13 s-1.28668 -1.74334 -1.30002 -2.97 c0 -1.66666 1.07334 -3.02 3.22 -4.06 c-0.61334 -0.64 -1.04334 -1.21666 -1.29 -1.73 s-0.37 -1.03 -0.37 -1.55 c0 -1.01334 0.36 -1.82 1.08 -2.42 s1.62 -0.9 2.7 -0.9 z M187.24406 8.93998 c0 0.69334 0.46666 1.48 1.4 2.36 c0.70666 -0.36 1.25 -0.74 1.63 -1.14 s0.57 -0.85334 0.57 -1.36 c0 -0.46666 -0.16 -0.83666 -0.48 -1.11 s-0.74 -0.41 -1.26 -0.41 s-0.96 0.15 -1.32 0.45 s-0.54 0.70334 -0.54 1.21 z M185.80406 16.19998 c0 0.66666 0.263398 1.24334 0.790058 1.73 s1.15 0.73666 1.87 0.75 c1.10666 0 2.15332 -0.6 3.13998 -1.8 l-3.42 -3.56 c-0.77334 0.46666 -1.28668 0.82 -1.54002 1.06 s-0.45668 0.51334 -0.61002 0.82 s-0.23 0.64 -0.23 1 z M221.332 5.84 l0 1.8 l-4.56 0 l0 12.36 l-1.92 0 l0 -12.36 l-4.56 0 l0 -1.8 l11.04 0 z M231.336 5.84 l6.06 14.16 l-2.24 0 l-1.42 -3.5 l-6.74 0 l-1.4 3.5 l-2.24 0 l6.24 -14.16 l1.74 0 z M227.676 14.82 l5.36 0 l-2.64 -6.5 l-0.04 0 z M243.84 5.84 l3.68 5.44 l3.64 -5.44 l2.4 0 l-4.72 6.7 l5.2 7.46 l-2.52 0 l-4.06 -6.14 l-4.08 6.14 l-2.38 0 l5.14 -7.44 l-4.76 -6.72 l2.46 0 z M275.128 5.48 c1 0 1.93666 0.186641 2.81 0.55998 s1.59 0.92 2.15 1.64 l-1.6 1.22 c-0.86666 -1.08 -2.00666 -1.62 -3.42 -1.62 c-1.53334 0 -2.79668 0.54666 -3.79002 1.64 s-1.49 2.46668 -1.49 4.12002 c0 1.6 0.49 2.92 1.47 3.96 s2.25 1.56 3.81 1.56 s2.79334 -0.63334 3.7 -1.9 l1.62 1.22 c-0.56 0.74666 -1.30666 1.34666 -2.24 1.8 s-1.97334 0.68 -3.12 0.68 c-1.36 0 -2.59334 -0.33 -3.7 -0.99 s-1.98 -1.56666 -2.62 -2.72 s-0.96 -2.36334 -0.96 -3.63 c0 -2.18666 0.68666 -3.99 2.06 -5.41 s3.14668 -2.13 5.32002 -2.13 z M292.832 5.48 c2.10666 0 3.86336 0.69998 5.27002 2.09998 s2.11 3.18 2.11 5.34 c0 1.37334 -0.31334 2.63 -0.94 3.77 s-1.51 2.03666 -2.65 2.69 s-2.40334 0.98 -3.79 0.98 c-1.37334 0 -2.62668 -0.32334 -3.76002 -0.97 s-2.02 -1.54 -2.66 -2.68 s-0.96 -2.40334 -0.96 -3.79 c0 -2.10666 0.69 -3.87332 2.07 -5.29998 s3.15 -2.14 5.31 -2.14 z M287.49204 12.91998 c0 1.6 0.49998 2.94002 1.49998 4.02002 s2.28 1.62 3.84 1.62 c1.53334 0 2.80668 -0.53334 3.82002 -1.6 s1.52 -2.41332 1.52 -4.03998 c0 -1.61334 -0.5 -2.95668 -1.5 -4.03002 s-2.28666 -1.61 -3.86 -1.61 c-1.52 0 -2.78666 0.53334 -3.8 1.6 s-1.52 2.41332 -1.52 4.03998 z M309.316 5.84 l4.5 10.72 l0.08 0 l4.46 -10.72 l2.86 0 l0 14.16 l-1.92 0 l0 -11.64 l-0.04 0 l-4.78 11.64 l-1.28 0 l-4.78 -11.64 l-0.04 0 l0 11.64 l-1.92 0 l0 -14.16 l2.86 0 z M333.42 5.84 c1.37334 0 2.45664 0.34 3.24998 1.02 s1.19 1.66 1.19 2.94 c0 1.24 -0.39334 2.21 -1.18 2.91 s-1.87332 1.05 -3.25998 1.05 l-3.16 0 l0 6.24 l-1.92 0 l0 -14.16 l5.08 0 z M332.85996 12.08 c1 0 1.74334 -0.183359 2.23 -0.55002 s0.73 -0.94332 0.73 -1.72998 c0 -1.52 -0.98666 -2.28 -2.96 -2.28 l-2.6 0 l0 4.56 l2.6 0 z M348.524 5.84 l6.06 14.16 l-2.24 0 l-1.42 -3.5 l-6.74 0 l-1.4 3.5 l-2.24 0 l6.24 -14.16 l1.74 0 z M344.864 14.82 l5.36 0 l-2.64 -6.5 l-0.04 0 z M362.568 5.84 l7.8 11.64 l0.04 0 l0 -11.64 l1.92 0 l0 14.16 l-2.44 0 l-7.88 -11.64 l-0.04 0 l0 11.64 l-1.92 0 l0 -14.16 l2.52 0 z M380.032 5.84 l3.86 6.22 l3.98 -6.22 l2.34 0 l-5.36 8.12 l0 6.04 l-1.92 0 l0 -6.04 l-5.36 -8.12 l2.46 0 z"></path></g>
			</g>
		</svg>
	